<svg height="300px" width="300px" fill="#000000" xmlns="http://www.w3.org/2000/svg" xmlns:xlink="http://www.w3.org/1999/xlink" version="1.1" x="0px" y="0px" viewBox="0 0 78 78" enable-background="new 0 0 78 78" xml:space="preserve"><title>Mail</title><desc>Created with Sketch.</desc><g><polygon points="48,36 54,36 54,30 48,30 48,36  "/><polygon points="42,42 48,42 48,36 42,36 42,42  "/><polygon points="30,36 30,42 36,42 36,36 30,36  "/><polygon points="30,36 30,30 24,30 24,36 30,36  "/><polygon points="36,48 42,48 42,42 36,42 36,48  "/><path d="M60,18c-16,0-32,0-48,0c0,14,0,28,0,42c18,0,36,0,54,0c0-14,0-28,0-42H60L60,18z M60,36c0,6,0,12,0,18c-14,0-28,0-42,0   c0-8,0-16,0-24h6v-6c10,0,20,0,30,0v6h6V36L60,36z"/></g></svg>